<?xml version="1.0" encoding="utf-8"?>
<!-- Generator: Adobe Illustrator 27.0.1, SVG Export Plug-In . SVG Version: 6.00 Build 0)  -->
<svg version="1.1" id="Layer_1" xmlns="http://www.w3.org/2000/svg" xmlns:xlink="http://www.w3.org/1999/xlink" x="0px" y="0px"
	 viewBox="0 0 46.7 30" style="enable-background:new 0 0 46.7 30;" xml:space="preserve">
<style type="text/css">
	.st0{fill:#393939;}
</style>
<path class="st0" d="M44.2,0H2.5C1.1,0,0,1.1,0,2.5v24.9C0,28.9,1.1,30,2.5,30h41.7c1.4,0,2.5-1.1,2.5-2.5V2.5
	C46.7,1.1,45.5,0,44.2,0z M18.6,21.4c0,1.5-1.4,2.9-2.9,2.9c-1.5,0-3.1,0-4.6,0v-6.5c1.1,0.2,2.3,0.4,3.4,0.4
	c1.1-0.1,2.5-0.2,3.1-1.3c0.5-0.8,0.3-1.7,0.3-2.6l0-2.2l-2.6,0c0,1.3,0,2.6,0,3.9c-0.1,0.9-1,1.3-1.8,1.2c-0.9,0-1.7-0.4-2.4-0.6h0
	c0,0,0-5.7,0-8.3c0.3-1.5,1.8-2.7,3.3-2.5h4.2C18.6,11,18.6,16.2,18.6,21.4L18.6,21.4z M27.1,21.5c-0.1,1.6-1.6,3-3.2,2.8h-4.3v-7.1
	c1.1,0.9,2.6,1,4,1c0.9,0,1.8-0.2,2.7-0.4l0-1.3c-1.2,0.6-2.7,1-4,0.3c-1-0.6-1.1-2.1-0.6-3c0.7-1,2-1,3.1-0.8
	c0.5,0,1.2,0.5,1.5,0.5v-1.2c-1.8-0.5-3.7-0.6-5.4-0.1c-0.4,0.2-0.9,0.4-1.2,0.7l0,0c0-1.5,0-2.9,0-4.4c0.1-1.4,1.3-2.6,2.6-2.7
	c1.4,0,2.7,0,4.1,0h0.8C27.1,11,27.1,16.2,27.1,21.5L27.1,21.5z M32.7,24.2c-1.6,0-3.2,0-4.7,0v-6.3h4.7c0.9,0,1.9-0.5,1.9-1.6
	c0-0.9-0.9-1.5-1.7-1.5c0.6-0.1,1.3-0.5,1.4-1.3c0.1-0.9-0.7-1.6-1.6-1.6c-1.6,0-3.1,0-4.7,0V8.8c-0.1-1.6,1.2-3.1,2.8-3.2
	c1.6,0,3.1,0,4.7,0v15.5C35.5,22.7,34.2,24.1,32.7,24.2L32.7,24.2z M31.2,15.4c0,0,0.9-0.1,0.9,0.8c0,0.9-0.8,0.8-0.9,0.8h-1.7v-1.6
	L31.2,15.4L31.2,15.4z M29.4,14.5v-1.5H31c0,0,0.8,0,0.8,0.8S31,14.5,31,14.5L29.4,14.5L29.4,14.5z"/>
</svg>
